PathFileType	4	(X/Y/Z)	/Users/niels/Desktop/University/Third Semester/Perception and Action/Exam/Gymnastics Motion Tracking/Code for Gym Tracking/Analyzed Data/Webcam_Backflip/temp_id5_4_trajectory_Sports2D/temp_id5_4_trajectory_Sports2D_px_person00.trc
DataRate	CameraRate	NumFrames	NumMarkers	Units	OrigDataRate	OrigDataStartFrame	OrigNumFrames
29.8125	29.8125	12	22	m	29.8125	20	160
Frame#	Time	Hip			RHip			RKnee			RAnkle			RBigToe			RSmallToe			RHeel			LHip			LKnee			LAnkle			LBigToe			LSmallToe			LHeel			Neck			Head			Nose			RShoulder			RElbow			RWrist			LShoulder			LElbow			LWrist		
		X1	Y1	Z1	X2	Y2	Z2	X3	Y3	Z3	X4	Y4	Z4	X5	Y5	Z5	X6	Y6	Z6	X7	Y7	Z7	X8	Y8	Z8	X9	Y9	Z9	X10	Y10	Z10	X11	Y11	Z11	X12	Y12	Z12	X13	Y13	Z13	X14	Y14	Z14	X15	Y15	Z15	X16	Y16	Z16	X17	Y17	Z17	X18	Y18	Z18	X19	Y19	Z19	X20	Y20	Z20	X21	Y21	Z21	X22	Y22	Z22
20	0.670859538784067	0.974276437214127	-0.6048293735495156	0.0	0.9719358288826062	-0.6021144681460127	0.0	1.0046004486482407	-0.7023483082801143	0.0	0.9628477227844591	-0.8022596838912358	0.0	1.005205731905929	-0.8171914122534901	0.0	0.992765277996545	-0.8222070443854249	0.0	0.9534869932916195	-0.815979110569181	0.0	0.9767210574670714	-0.601247019212079	0.0	1.0008431390989543	-0.7015499904891612	0.0	0.9663570011626984	-0.7943947436156904	0.0	1.0077977304861607	-0.8135135269345024	0.0	1.004090498873904	-0.8082686445354906	0.0	0.9532318943525334	-0.80694003911693	0.0	1.0019632793379758	-0.45775707342263616	0.0	1.0290169368850197	-0.39831289126071245	0.0	1.03985436858758	-0.43110421164494167	0.0	0.9931347224223115	-0.47303193952493244	0.0	0.9613074304969021	-0.5322292698559681	0.0	0.935661934686834	-0.5857580773662281	0.0	0.9932172532474403	-0.4719405119514795	0.0	0.9693253842541055	-0.5345989513883361	0.0	0.9553991125753277	-0.5812456087775263	0.0
21	0.7044025157232703	0.9743321196061365	-0.594239482916305	0.0	0.9712474674793748	-0.5915803106269036	0.0	1.0005977757580364	-0.6935857593793869	0.0	0.9626125745266015	-0.7950185268938351	0.0	1.0054588450427717	-0.810106694586707	0.0	0.9932603985669495	-0.8156169479131592	0.0	0.9535171515581642	-0.8093951628663141	0.0	0.9771434576571236	-0.5910987945486843	0.0	0.9973847524408752	-0.6928183443774644	0.0	0.9658252213572532	-0.7866428247228776	0.0	1.0063565616268828	-0.8062808546168005	0.0	1.0026942453521626	-0.801406509355164	0.0	0.9519578189482721	-0.8002791258349592	0.0	1.0029827401141744	-0.44787774298832794	0.0	1.0325314252985411	-0.38837117404243704	0.0	1.042060296460187	-0.42188819639140596	0.0	0.9942351118569955	-0.4607909795001621	0.0	0.9552641783097424	-0.511568827688601	0.0	0.9207021516379024	-0.5570802441130744	0.0	0.9941038968429554	-0.46107915908618213	0.0	0.9620423063589162	-0.5165701139292741	0.0	0.9363571549465347	-0.5559240698085475	0.0
22	0.7379454926624737	0.9738220222820109	-0.5828443366876386	0.0	0.9704211752778933	-0.5805125242510949	0.0	0.9969723742882296	-0.6842074546562672	0.0	0.9627480612053121	-0.7868416419393804	0.0	1.005340636712911	-0.8033684834790098	0.0	0.9936641172740538	-0.8088979824203621	0.0	0.9534979674437712	-0.8017388950482683	0.0	0.9767784618880098	-0.5802850892955724	0.0	0.9941513517441447	-0.6834390604263432	0.0	0.9657675968513942	-0.7783888984195277	0.0	1.004658670902976	-0.7986114180392223	0.0	1.000808268186785	-0.7942407759687947	0.0	0.9509385578163873	-0.7928592341583055	0.0	1.0036940109465473	-0.43773653958841074	0.0	1.036432462594227	-0.3777288985471309	0.0	1.0442852945470529	-0.41216238752422657	0.0	0.9956536608873503	-0.448201577768454	0.0	0.9503863845133913	-0.49005360221158734	0.0	0.9085625220282562	-0.526072774176404	0.0	0.9947948793681965	-0.4498476938906487	0.0	0.957408898107678	-0.49702646927898464	0.0	0.9224451664551004	-0.5280898176206652	0.0
23	0.771488469601677	0.9729393406563637	-0.5715480064443124	0.0	0.9695279539384865	-0.5697007709600496	0.0	0.9939710367106672	-0.6748081704787768	0.0	0.9632252653791571	-0.7783459305330002	0.0	1.0051191454023107	-0.7973797765311044	0.0	0.9939637595904305	-0.80252099327199	0.0	0.9535489820488804	-0.7936320558489529	0.0	0.9756772906804841	-0.5695582018850279	0.0	0.9911723952307583	-0.6740322724030834	0.0	0.966078970725653	-0.7702879353644233	0.0	1.0029027323120783	-0.7911083747841869	0.0	0.9987637431706629	-0.7873117995644148	0.0	0.9502574003402765	-0.7852185374918584	0.0	1.0040788451196623	-0.4279035669995343	0.0	1.0404597001475917	-0.3671527252437399	0.0	1.0463416951263629	-0.402557367188677	0.0	0.9971168172193208	-0.43612362145418493	0.0	0.9463997902748071	-0.46928099276442764	0.0	0.899133280121876	-0.4951903443741318	0.0	0.9951157048045929	-0.43881573057362894	0.0	0.9549182133026306	-0.47732590793758134	0.0	0.9137100527410457	-0.5003204770995586	0.0
24	0.8050314465408803	0.9718274410949984	-0.5611632574261038	0.0	0.9685452313700876	-0.5597780184980063	0.0	0.9917554403221549	-0.6658921530092761	0.0	0.96399566333069	-0.7702254083310943	0.0	1.005098037552601	-0.7922473583220079	0.0	0.9943146499870087	-0.7967545663308127	0.0	0.9538065476236975	-0.7857847687776308	0.0	0.9740248780339434	-0.5595570331136333	0.0	0.9885964477365565	-0.665115016501652	0.0	0.9665978503087101	-0.762927607362784	0.0	1.0014417955949424	-0.7842766577551293	0.0	0.9970090830578363	-0.7810509898905595	0.0	0.9499373664583556	-0.777937481287401	0.0	1.0042388973225225	-0.4188398983342606	0.0	1.0442717448533398	-0.3573877208269899	0.0	1.0481155291607112	-0.3936447272428772	0.0	0.998410643210783	-0.42524353679537025	0.0	0.9431131070733824	-0.4506568420827037	0.0	0.8921403516504668	-0.46676336402264246	0.0	0.9951007729966472	-0.42851001676139333	0.0	0.9538014113723193	-0.45880353188104056	0.0	0.909352092000406	-0.4750040019240114	0.0
25	0.8385744234800837	0.9705687684365136	-0.5522734588493611	0.0	0.9674366564551894	-0.551202505914812	0.0	0.9904565615523988	-0.6578254556545668	0.0	0.9650039803966839	-0.7630246651372484	0.0	1.0054293366189992	-0.7879102563124883	0.0	0.9948601348420653	-0.7916999836219343	0.0	0.9543464306500782	-0.7787241571061774	0.0	0.972037158545444	-0.5507852977308336	0.0	0.9866792973915398	-0.6570621706872233	0.0	0.9672245004789494	-0.7566717583127027	0.0	1.0005816033409067	-0.7784067680564066	0.0	0.99588309740612	-0.7756763196201346	0.0	0.9500042646671026	-0.7714265926054094	0.0	1.00430299018314	-0.41098168514913563	0.0	1.0475880845365146	-0.34906885788936753	0.0	1.0495821508989283	-0.38590509945398027	0.0	0.9994583853206247	-0.4160610317691508	0.0	0.9404682113964793	-0.43517848642102586	0.0	0.8871347116086041	-0.4427694593375744	0.0	0.9949510672067325	-0.41947184021632844	0.0	0.9533730600390585	-0.44277795945896375	0.0	0.9082634637977073	-0.4541222587553605	0.0
26	0.8721174004192871	0.9692042203197655	-0.5452191023342673	0.0	0.9661867674938559	-0.5442507956145337	0.0	0.9902205955903816	-0.6508731779804077	0.0	0.966182819362865	-0.7570009698321051	0.0	1.0060619848201877	-0.7842374813645602	0.0	0.9955969555784828	-0.7873585608039096	0.0	0.9551424568812571	-0.7726499245016996	0.0	0.9698639105321447	-0.543598229366489	0.0	0.9857129733877079	-0.6501113350985334	0.0	0.9679490369834056	-0.7515639456657062	0.0	1.0004073326598626	-0.7734734294032917	0.0	0.9954337340487078	-0.7711400991535834	0.0	0.9504469398319786	-0.7658150526577733	0.0	1.0043465084580898	-0.4047707345110132	0.0	1.050276675752059	-0.342681539915422	0.0	1.0507586130153437	-0.3797816699329739	0.0	1.0002939213337976	-0.40896985692642374	0.0	0.9384434087269393	-0.42343723574102937	0.0	0.8835278293558305	-0.4247319790565749	0.0	0.9948801469392263	-0.41222701183901417	0.0	0.9532396722774322	-0.4303904517312732	0.0	0.909291384218585	-0.43913237634986885	0.0
27	0.9056603773584905	0.9677524538040487	-0.540219923160858	0.0	0.9647998564625339	-0.5391260395579036	0.0	0.9912036348473271	-0.64527430813018	0.0	0.9674552833611442	-0.7521693604130761	0.0	1.0068389638638215	-0.7811204061322732	0.0	0.9963959570641328	-0.783706110748956	0.0	0.9560890174592792	-0.7675280467766976	0.0	0.9675724452451667	-0.5382738790592668	0.0	0.9859686620158165	-0.6444333776523898	0.0	0.9688153434183828	-0.7474387540004692	0.0	1.000770882341839	-0.7692636573491133	0.0	0.9954548495095954	-0.7672641832974716	0.0	0.951158821841863	-0.7610581144914275	0.0	1.0044045360679188	-0.4006388029742203	0.0	1.0523218844248978	-0.33860341242861414	0.0	1.0516844674541332	-0.3757527903024596	0.0	1.0009960935611484	-0.40434884472145005	0.0	0.9369904624304948	-0.41580918570081826	0.0	0.8807336293319503	-0.41376346571726996	0.0	0.9949999084196548	-0.40725620611207974	0.0	0.9532548381160104	-0.4224200506274911	0.0	0.9113349345174764	-0.4309484426200903	0.0
28	0.9392033542976937	0.9662028553193702	-0.53748830547689	0.0	0.9632717032265335	-0.5361024166141417	0.0	0.9935151663438226	-0.6412410199250993	0.0	0.9687337389468944	-0.7484169429380804	0.0	1.0075823666492472	-0.7785246098012758	0.0	0.9970904590891453	-0.7807294451400344	0.0	0.957029047560246	-0.7632625822364179	0.0	0.965167379290853	-0.5351117133717467	0.0	0.9876272083026586	-0.6401690807225827	0.0	0.969862747058797	-0.7440943794114163	0.0	1.0014019407356747	-0.7656527275900599	0.0	0.9956469759311677	-0.7639403675792228	0.0	0.9519614100130587	-0.757086818261082	0.0	1.0045309940694884	-0.39900402699844884	0.0	1.0537606892800477	-0.3371680650111422	0.0	1.0524287228501612	-0.3742883776416125	0.0	1.0016328134145596	-0.4025774887243878	0.0	0.9360795892476059	-0.4126810549841513	0.0	0.8784023773635705	-0.4107046283481848	0.0	0.995321895068572	-0.40499941307742277	0.0	0.9532972960409124	-0.41933756736773814	0.0	0.9133863557410847	-0.43001855996283106	0.0
29	0.9727463312368971	0.9645047850117375	-0.5372862349486658	0.0	0.961565990398627	-0.5355498085588083	0.0	0.9971443969984595	-0.6389255797451724	0.0	0.9699339830724896	-0.7456670560451976	0.0	1.0081498083570772	-0.776480815913185	0.0	0.9975730645734694	-0.7784627834185153	0.0	0.9578288166347361	-0.7598654438740836	0.0	0.9626463901157618	-0.5344742160383478	0.0	0.9907133414171012	-0.637448150998154	0.0	0.971072296522327	-0.7414509748057276	0.0	1.002076148083207	-0.762808848124495	0.0	0.9958147919803826	-0.7612903351395478	0.0	0.9527048032156312	-0.7539412261149286	0.0	1.0048158138491474	-0.400229571495728	0.0	1.0546377060532635	-0.33868462819207573	0.0	1.0530461125491073	-0.37573041913618466	0.0	1.0022267622616083	-0.40398909193053784	0.0	0.9357628280041753	-0.41456745053842575	0.0	0.8767017652310509	-0.4162286076478067	0.0	0.9958130654052548	-0.4058501642505249	0.0	0.9531199273091966	-0.4215102131180832	0.0	0.9147491018530712	-0.43642726965522405	0.0
30	1.0062893081761004	0.962597570048677	-0.5399278985027754	0.0	0.9596396349675799	-0.5378654692188419	0.0	1.0018819401821717	-0.6384713264318802	0.0	0.9710085207432356	-0.7440805035682564	0.0	1.0084816621103796	-0.7751489012442353	0.0	0.9978498471088889	-0.7770863823012417	0.0	0.9584770862296619	-0.7576255725885394	0.0	0.9600804775354748	-0.5367601130225907	0.0	0.9950656027524845	-0.6364992889651397	0.0	0.9723381347561514	-0.7397451490843021	0.0	1.0027545159707079	-0.7612808974634023	0.0	0.9960339527151791	-0.7597878261959354	0.0	0.9533608357359197	-0.7519343282329376	0.0	1.0053274102691248	-0.4045223278994972	0.0	1.054939335544927	-0.34339477993504175	0.0	1.0535039234219492	-0.3802312872949025	0.0	1.0027270008277296	-0.4088118279848669	0.0	0.9361826915830755	-0.42203187770561823	0.0	0.876492966077064	-0.4307516696527263	0.0	0.9964126056836382	-0.4100962239084351	0.0	0.9524721852132819	-0.42923966424780075	0.0	0.915479275616184	-0.4499473274635877	0.0
31	1.039832285115304	0.9604629962550069	-0.545703579543301	0.0	0.9574970950216184	-0.5434054504518312	0.0	1.0072417835773007	-0.6401257716950193	0.0	0.9719331595969488	-0.744153778807776	0.0	1.0085771787725908	-0.7749634118357498	0.0	0.9979847478971288	-0.777027808192721	0.0	0.9590511882051603	-0.757155924788947	0.0	0.9576403884250452	-0.5423193156578621	0.0	1.0003220073358747	-0.6377483086967634	0.0	0.9734724437800275	-0.7396222342403325	0.0	1.0035908795872106	-0.7619228969997583	0.0	0.9966138566584973	-0.7602211341603218	0.0	0.9539879964930531	-0.751704992223796	0.0	1.0060169624111328	-0.41187050556898075	0.0	1.0545437217242921	-0.35138293935425174	0.0	1.0536638368123632	-0.38775573453191986	0.0	1.00298380574858	-0.41711702388813887	0.0	0.9375740531263065	-0.4354478858608369	0.0	0.879263471566059	-0.45406115396438806	0.0	0.9969818448267347	-0.4178156565259214	0.0	0.9514379677834595	-0.44255588784547917	0.0	0.9166919346265784	-0.4699888212978879	0.0
